0
SECTION
2
HEADER
9
$INSUNITS
70
4
9
$ACADVER
1
AC1014
9
$HANDSEED
5
FFFF
0
ENDSEC
0
SECTION
2
TABLES
0
TABLE
2
VPORT
5
8
100
AcDbSymbolTable
0
ENDTAB
0
TABLE
2
LTYPE
5
5
100
AcDbSymbolTable
0
LTYPE
5
14
100
AcDbSymbolTableRecord
100
AcDbLinetypeTableRecord
2
BYBLOCK
70
0
0
LTYPE
5
15
100
AcDbSymbolTableRecord
100
AcDbLinetypeTableRecord
2
BYLAYER
70
0
0
ENDTAB
0
TABLE
2
LAYER
5
2
100
AcDbSymbolTable
70
2
0
LAYER
5
50
100
AcDbSymbolTableRecord
100
AcDbLayerTableRecord
2
0
70
0
6
CONTINUOUS
0
ENDTAB
0
TABLE
2
STYLE
5
3
100
AcDbSymbolTable
70
1
0
STYLE
5
11
100
AcDbSymbolTableRecord
100
AcDbTextStyleTableRecord
2
STANDARD
70
0
0
ENDTAB
0
TABLE
2
VIEW
5
6
100
AcDbSymbolTable
70
0
0
ENDTAB
0
TABLE
2
UCS
5
7
100
AcDbSymbolTable
70
0
0
ENDTAB
0
TABLE
2
APPID
5
9
100
AcDbSymbolTable
70
2
0
APPID
5
12
100
AcDbSymbolTableRecord
100
AcDbRegAppTableRecord
2
ACAD
70
0
0
ENDTAB
0
TABLE
2
DIMSTYLE
5
A
100
AcDbSymbolTable
70
1
0
ENDTAB
0
TABLE
2
BLOCK_RECORD
5
1
100
AcDbSymbolTable
70
1
0
BLOCK_RECORD
5
1F
100
AcDbSymbolTableRecord
100
AcDbBlockTableRecord
2
*MODEL_SPACE
0
BLOCK_RECORD
5
1B
100
AcDbSymbolTableRecord
100
AcDbBlockTableRecord
2
*PAPER_SPACE
0
ENDTAB
0
ENDSEC
0
SECTION
2
BLOCKS
0
BLOCK
5
20
100
AcDbEntity
100
AcDbBlockBegin
2
*MODEL_SPACE
0
ENDBLK
5
21
100
AcDbEntity
100
AcDbBlockEnd
0
BLOCK
5
1C
100
AcDbEntity
100
AcDbBlockBegin
2
*PAPER_SPACE
0
ENDBLK
5
1D
100
AcDbEntity
100
AcDbBlockEnd
0
ENDSEC
0
SECTION
2
ENTITIES
0
CIRCLE
5
100
100
AcDbEntity
8
0
100
AcDbCircle
10
-119.74683910424098
20
206.95995632705967
30
0
40
1.6000000000000014
210
-0
220
0
230
1
0
CIRCLE
5
101
100
AcDbEntity
8
0
100
AcDbCircle
10
-131.74683910424091
20
154.95995632705967
30
0
40
1.6000000000000014
210
-0
220
0
230
1
0
CIRCLE
5
102
100
AcDbEntity
8
0
100
AcDbCircle
10
-131.74683910424093
20
206.95995632705967
30
0
40
1.6000000000000014
210
-0
220
0
230
1
0
CIRCLE
5
103
100
AcDbEntity
8
0
100
AcDbCircle
10
-119.74683910424098
20
154.95995632705967
30
0
40
1.6000000000000014
210
-0
220
0
230
1
0
LWPOLYLINE
5
104
100
AcDbEntity
8
0
100
AcDbPolyline
90
8
70
1
43
0.0
10
-22.746839104241165
20
295.95995632705967
42
-0.41421356237309737
10
-12.746839104241143
20
285.95995632705967
10
-12.746839104240903
20
75.959956327060112
42
-0.41421356237309453
10
-22.746839104240877
20
65.959956327060098
10
-232.74683910424085
20
65.959956327059587
42
-0.41421356237309476
10
-242.74683910424088
20
75.959956327059615
10
-242.74683910424119
20
285.95995632705916
42
-0.41421356237309398
10
-232.74683910424119
20
295.95995632705916
0
LWPOLYLINE
5
105
100
AcDbEntity
8
0
100
AcDbPolyline
90
8
70
1
43
0.0
10
-149.90504551802852
20
146.7380695324396
10
-163.67045076837994
20
133.9559075142561
42
0.68164937989279861
10
-158.5670675231253
20
120.95995632705885
10
-96.926610685356721
20
120.95995632705913
42
0.6816493798927945
10
-91.823227440102187
20
133.95590751425638
10
-105.58863269045338
20
146.73806953243962
42
0.18930855855784626
10
-110.69201593570796
20
148.74211834524235
10
-144.80166227277391
20
148.74211834524235
42
0.18930855855784709
0
LWPOLYLINE
5
106
100
AcDbEntity
8
0
100
AcDbPolyline
90
6
70
1
43
0.0
10
-192.74683910424272
20
210.47159700173881
10
-192.74683910424272
20
151.44831565237814
42
0.65487348315777705
10
-180.14345585898815
20
145.95236446518092
10
-148.36168897856319
20
175.46400513986131
42
0.43606951246734227
10
-148.36168897856322
20
186.45590751425578
10
-180.1434558589882
20
215.96754818893606
42
0.65487348315777394
0
LWPOLYLINE
5
107
100
AcDbEntity
8
0
100
AcDbPolyline
90
8
70
1
43
0.0
10
-96.926610685354603
20
240.9599563270603
10
-158.56706752312758
20
240.9599563270603
42
0.68164937989279561
10
-163.67045076838218
20
227.96400513986302
10
-149.90504551802849
20
215.1818431216775
42
0.18930855855784626
10
-144.80166227277391
20
213.17779430887475
10
-110.69201593570821
20
213.17779430887475
42
0.18930855855784756
10
-105.58863269045361
20
215.18184312167756
10
-91.823227440100013
20
227.96400513986305
42
0.68164937989279961
0
LWPOLYLINE
5
108
100
AcDbEntity
8
0
100
AcDbPolyline
90
6
70
1
43
0.0
10
-62.7468391042392
20
151.44831565237834
10
-62.746839104239342
20
210.47159700173898
42
0.65487348315777316
10
-75.350222349493919
20
215.96754818893623
10
-107.13198922991876
20
186.4559075142559
42
0.43606951246734427
10
-107.13198922991877
20
175.4640051398614
10
-75.350222349493777
20
145.95236446518106
42
0.65487348315777538
0
LWPOLYLINE
5
109
100
AcDbEntity
8
0
100
AcDbPolyline
90
10
70
1
43
0.0
10
-202.74683910424272
20
143.23173661364757
10
-202.74683910424272
20
218.68817604047084
42
0.29325275459714367
10
-207.12183910424275
20
225.50612111211817
42
-0.32766796818184396
10
-220.06973627111833
20
248.77744848802496
42
0.24153136105887194
10
-222.40731874815563
20
255.21256372887717
42
0.53309354653039587
10
-232.74683910424108
20
248.27086911247576
10
-232.74683910424091
20
113.6490435416426
42
0.53309354653052043
10
-222.4073187481527
20
106.70734892524236
42
0.24153136105887316
10
-220.06973627111546
20
113.14246416609461
42
-0.3276679681818167
10
-207.12183910424204
20
136.41379154200058
42
0.29325275459711542
0
LINE
5
110
100
AcDbEntity
8
0
100
AcDbLine
10
-22.746839104241104
20
247.61445414459456
30
0
11
-22.746839104240934
21
114.30545850952292
31
0
0
ARC
5
111
100
AcDbEntity
8
0
100
AcDbCircle
10
-30.246839104240941
20
114.30545850952291
30
0
40
7.5
210
5.9577398341994505e-33
220
-2.6411638520478172e-33
230
1
100
AcDbArc
50
-132.87890360333853
51
0
0
ARC
5
112
100
AcDbEntity
8
0
100
AcDbCircle
10
-28.165967301047292
20
110.96275477389349
30
-2.0868946856399864e-46
40
7.5000000000001226
210
2.9517594704312142e-33
220
8.8469417002674087e-34
230
1
100
AcDbArc
50
170.41135218384747
51
196.68439706444889
0
ARC
5
113
100
AcDbEntity
8
0
100
AcDbCircle
10
-57.746839104242
20
115.95995632705979
30
0
40
22.499999999999996
210
-1.4214772903561869e-33
220
-2.8850139838749616e-33
230
1
100
AcDbArc
50
-9.5886478161527045
51
65.375681647829992
0
ARC
5
114
100
AcDbEntity
8
0
100
AcDbCircle
10
-45.246839104239179
20
143.23173661364777
30
0
40
7.5
210
6.1629758220391698e-33
220
-6.1629758220391404e-33
230
1
100
AcDbArc
50
180
51
245.37568164783002
0
LINE
5
115
100
AcDbEntity
8
0
100
AcDbLine
10
-52.746839104239179
20
143.23173661364774
30
4.6222318665293666e-32
11
-52.746839104239356
21
218.68817604047106
31
0
0
ARC
5
116
100
AcDbEntity
8
0
100
AcDbCircle
10
-45.246839104239349
20
218.68817604047109
30
0
40
7.5000000000000089
210
2.5679065925163372e-33
220
-5.6025107510071088e-33
230
1
100
AcDbArc
50
114.62431835216429
51
180
0
ARC
5
117
100
AcDbEntity
8
0
100
AcDbCircle
10
-57.746839104239442
20
245.95995632706033
30
0
40
22.499999999999972
210
-8.5596886417211102e-34
220
1.8675035836690422e-33
230
1
100
AcDbArc
50
-65.375681647835734
51
9.5886478161605364
0
ARC
5
118
100
AcDbEntity
8
0
100
AcDbCircle
10
-28.16596730104547
20
250.95715788023068
30
1.7789921910373654e-45
40
7.5000000000000675
210
4.0650243736332925e-33
220
-5.5635793847633353e-33
230
1
100
AcDbArc
50
163.3156029356048
51
189.58864781616055
0
ARC
5
119
100
AcDbEntity
8
0
100
AcDbCircle
10
-30.246839104241111
20
247.61445414459456
30
0
40
7.5000000000000089
210
0
220
-6.1629758220391547e-33
230
1
100
AcDbArc
50
0
51
132.87890360333876
0
LWPOLYLINE
5
120
100
AcDbEntity
8
0
100
AcDbPolyline
90
12
70
1
43
0.0
10
-202.20789491272734
20
268.01327764321536
42
-0.3482928310199907
10
-177.29300388930082
20
255.33495632706018
42
0.29325275459714367
10
-170.47505881765349
20
250.95995632706018
10
-85.018619390828803
20
250.95995632706013
42
0.29325275459714506
10
-78.200674319181488
20
255.33495632706018
42
-0.34829283101999275
10
-53.285783295754911
20
268.01327764321559
42
0.24153136105887182
10
-46.695381447672162
20
269.86843356140344
10
-43.361688978562576
20
272.96400513986225
42
0.68164937989279906
10
-48.465072223817174
20
285.95995632705956
10
-207.02860598466498
20
285.95995632705922
42
0.68164937989279784
10
-212.13198922991953
20
272.96400513986202
10
-208.79829676081013
20
269.86843356140315
42
0.24153136105887282
0
LWPOLYLINE
5
121
100
AcDbEntity
8
0
100
AcDbPolyline
90
12
70
1
43
0.0
10
-53.285783295757518
20
93.906635010904552
42
-0.34829283101998515
10
-78.200674319183804
20
106.58495632705943
42
0.29325275459714056
10
-85.018619390831105
20
110.95995632705933
10
-170.47505881765093
20
110.9599563270589
42
0.29325275459713546
10
-177.29300388929815
20
106.58495632705907
42
-0.34829283101998221
10
-202.2078949127243
20
93.906635010904367
42
0.24153136105887044
10
-208.79829676080703
20
92.051479092716519
10
-212.13198922991739
20
88.955907514256893
42
0.68164937989279661
10
-207.02860598466282
20
75.959956327059658
10
-48.465072223819156
20
75.959956327060041
42
0.68164937989279784
10
-43.361688978564587
20
88.955907514257305
10
-46.695381447674777
20
92.051479092716733
42
0.2415313610588713
0
CIRCLE
5
122
100
AcDbEntity
8
0
100
AcDbCircle
10
-209.74683910424164
20
125.45995632705956
30
0
40
1.7999999999999972
210
-0
220
0
230
1
0
CIRCLE
5
123
100
AcDbEntity
8
0
100
AcDbCircle
10
-69.746839104241687
20
106.45995632705998
30
0
40
1.7999999999999972
210
-0
220
0
230
1
0
CIRCLE
5
124
100
AcDbEntity
8
0
100
AcDbCircle
10
-185.74683910424173
20
236.45995632705927
30
0
40
1.7999999999999972
210
-0
220
0
230
1
0
CIRCLE
5
125
100
AcDbEntity
8
0
100
AcDbCircle
10
-69.746839104241118
20
255.4599563270603
30
0
40
1.7999999999999972
210
-0
220
0
230
1
0
CIRCLE
5
126
100
AcDbEntity
8
0
100
AcDbCircle
10
-69.746839104241118
20
236.45995632706033
30
0
40
1.7999999999999972
210
-0
220
0
230
1
0
CIRCLE
5
127
100
AcDbEntity
8
0
100
AcDbCircle
10
-209.74683910424173
20
236.45995632705927
30
0
40
1.7999999999999972
210
-0
220
0
230
1
0
CIRCLE
5
128
100
AcDbEntity
8
0
100
AcDbCircle
10
-69.746839104241758
20
125.45995632705998
30
0
40
1.7999999999999972
210
-0
220
0
230
1
0
CIRCLE
5
129
100
AcDbEntity
8
0
100
AcDbCircle
10
-185.74683910424164
20
125.45995632705964
30
0
40
1.7999999999999972
210
-0
220
0
230
1
0
CIRCLE
5
130
100
AcDbEntity
8
0
100
AcDbCircle
10
-209.74683910424159
20
106.45995632705956
30
0
40
1.5000000000000213
210
-0
220
0
230
1
0
CIRCLE
5
131
100
AcDbEntity
8
0
100
AcDbCircle
10
-45.746839104241701
20
106.45995632706004
30
0
40
1.5000000000000036
210
-0
220
0
230
1
0
CIRCLE
5
132
100
AcDbEntity
8
0
100
AcDbCircle
10
-185.74683910424176
20
255.45995632705933
30
0
40
1.7999999999999972
210
-0
220
0
230
1
0
CIRCLE
5
133
100
AcDbEntity
8
0
100
AcDbCircle
10
-45.746839104241133
20
255.45995632706035
30
0
40
1.5000000000000036
210
-0
220
0
230
1
0
CIRCLE
5
134
100
AcDbEntity
8
0
100
AcDbCircle
10
-45.746839104241097
20
236.45995632706033
30
0
40
1.7999999999999972
210
-0
220
0
230
1
0
CIRCLE
5
135
100
AcDbEntity
8
0
100
AcDbCircle
10
-209.74683910424179
20
255.45995632705925
30
0
40
1.4999999999999858
210
-0
220
0
230
1
0
CIRCLE
5
136
100
AcDbEntity
8
0
100
AcDbCircle
10
-45.746839104241737
20
125.45995632706007
30
0
40
1.7999999999999972
210
-0
220
0
230
1
0
CIRCLE
5
137
100
AcDbEntity
8
0
100
AcDbCircle
10
-185.74683910424159
20
106.45995632705961
30
0
40
1.7999999999999972
210
-0
220
0
230
1
0
CIRCLE
5
138
100
AcDbEntity
8
0
100
AcDbCircle
10
-22.746839104241122
20
285.95995632705967
30
0
40
1.5000000000000036
210
-0
220
0
230
1
0
CIRCLE
5
139
100
AcDbEntity
8
0
100
AcDbCircle
10
-232.74683910424116
20
285.95995632705916
30
0
40
1.4999999999999858
210
-0
220
0
230
1
0
CIRCLE
5
140
100
AcDbEntity
8
0
100
AcDbCircle
10
-22.746839104240905
20
75.959956327060098
30
0
40
1.5000000000000036
210
-0
220
0
230
1
0
CIRCLE
5
141
100
AcDbEntity
8
0
100
AcDbCircle
10
-232.74683910424085
20
75.959956327059615
30
0
40
1.4999999999999858
210
-0
220
0
230
1
0
ENDSEC
0
SECTION
2
OBJECTS
0
DICTIONARY
5
C
100
AcDbDictionary
3
ACAD_GROUP
350
D
3
ACAD_MLINESTYLE
350
17
0
DICTIONARY
5
D
100
AcDbDictionary
0
DICTIONARY
5
1A
330
C
100
AcDbDictionary
0
DICTIONARY
5
17
100
AcDbDictionary
0
ENDSEC
0
EOF
