0
SECTION
2
HEADER
9
$INSUNITS
70
4
9
$ACADVER
1
AC1014
9
$HANDSEED
5
FFFF
0
ENDSEC
0
SECTION
2
TABLES
0
TABLE
2
VPORT
5
8
100
AcDbSymbolTable
0
ENDTAB
0
TABLE
2
LTYPE
5
5
100
AcDbSymbolTable
0
LTYPE
5
14
100
AcDbSymbolTableRecord
100
AcDbLinetypeTableRecord
2
BYBLOCK
70
0
0
LTYPE
5
15
100
AcDbSymbolTableRecord
100
AcDbLinetypeTableRecord
2
BYLAYER
70
0
0
ENDTAB
0
TABLE
2
LAYER
5
2
100
AcDbSymbolTable
70
2
0
LAYER
5
50
100
AcDbSymbolTableRecord
100
AcDbLayerTableRecord
2
0
70
0
6
CONTINUOUS
0
ENDTAB
0
TABLE
2
STYLE
5
3
100
AcDbSymbolTable
70
1
0
STYLE
5
11
100
AcDbSymbolTableRecord
100
AcDbTextStyleTableRecord
2
STANDARD
70
0
0
ENDTAB
0
TABLE
2
VIEW
5
6
100
AcDbSymbolTable
70
0
0
ENDTAB
0
TABLE
2
UCS
5
7
100
AcDbSymbolTable
70
0
0
ENDTAB
0
TABLE
2
APPID
5
9
100
AcDbSymbolTable
70
2
0
APPID
5
12
100
AcDbSymbolTableRecord
100
AcDbRegAppTableRecord
2
ACAD
70
0
0
ENDTAB
0
TABLE
2
DIMSTYLE
5
A
100
AcDbSymbolTable
70
1
0
ENDTAB
0
TABLE
2
BLOCK_RECORD
5
1
100
AcDbSymbolTable
70
1
0
BLOCK_RECORD
5
1F
100
AcDbSymbolTableRecord
100
AcDbBlockTableRecord
2
*MODEL_SPACE
0
BLOCK_RECORD
5
1B
100
AcDbSymbolTableRecord
100
AcDbBlockTableRecord
2
*PAPER_SPACE
0
ENDTAB
0
ENDSEC
0
SECTION
2
BLOCKS
0
BLOCK
5
20
100
AcDbEntity
100
AcDbBlockBegin
2
*MODEL_SPACE
0
ENDBLK
5
21
100
AcDbEntity
100
AcDbBlockEnd
0
BLOCK
5
1C
100
AcDbEntity
100
AcDbBlockBegin
2
*PAPER_SPACE
0
ENDBLK
5
1D
100
AcDbEntity
100
AcDbBlockEnd
0
ENDSEC
0
SECTION
2
ENTITIES
0
LWPOLYLINE
5
100
100
AcDbEntity
8
0
100
AcDbPolyline
90
6
70
1
43
0.0
10
241.03513618747058
20
224.73736464412104
10
231.33998449082901
20
262.13294975973855
42
0.88057646949414292
10
221.5
20
260.87813896581991
10
221.50000000000003
20
238.47576153539438
42
0.14449494226568671
10
222.3013401860857
20
235.76075586928226
10
231.99649188272727
20
220.76754818409029
42
0.851414978378502
0
LWPOLYLINE
5
101
100
AcDbEntity
8
0
100
AcDbPolyline
90
6
70
1
43
0.0
10
232.63099048852541
20
301.9999999999992
42
-0.34172121575872172
10
237.47097497935442
20
298.25481079391778
10
306.5
20
31.999999999999162
10
306.5
20
1.9999999999991611
10
206.5
20
1.9999999999991758
10
206.50000000000003
20
301.99999999999915
0
CIRCLE
5
102
100
AcDbEntity
8
0
100
AcDbCircle
10
218.49999999999997
20
16.999999999999162
30
0
40
2.5
210
0
220
0
230
1
0
CIRCLE
5
103
100
AcDbEntity
8
0
100
AcDbCircle
10
298.5
20
16.999999999999162
30
0
40
2.5
210
0
220
0
230
1
0
CIRCLE
5
104
100
AcDbEntity
8
0
100
AcDbCircle
10
245.16666666666666
20
16.999999999999162
30
0
40
2.5
210
0
220
0
230
1
0
CIRCLE
5
105
100
AcDbEntity
8
0
100
AcDbCircle
10
271.83333333333331
20
16.999999999999162
30
0
40
2.5
210
0
220
0
230
1
0
LWPOLYLINE
5
106
100
AcDbEntity
8
0
100
AcDbPolyline
90
6
70
1
43
0.0
10
229.90284825478884
20
120.00540448033925
10
257.68351556556547
20
145.81010990884971
42
0.36397023426620218
10
258.479327124691
20
152.18853252568968
10
230.69865981391433
20
195.15034763251242
42
0.74749570849192803
10
221.5
20
192.43534196640036
10
221.50000000000003
20
123.66882143106714
42
0.65493127937039997
0
LWPOLYLINE
5
107
100
AcDbEntity
8
0
100
AcDbPolyline
90
6
70
1
43
0.0
10
226.5
20
31.999999999999169
10
271.07902664872591
20
31.999999999999162
42
0.75278932605705029
10
273.73689375796596
20
41.23506108924218
10
229.15786710923996
20
69.21225579666509
42
0.58970244063681099
10
221.5
20
64.977194707422058
10
221.5
20
36.999999999999183
42
0.41421356237309531
0
LWPOLYLINE
5
108
100
AcDbEntity
8
0
100
AcDbPolyline
90
6
70
1
43
0.0
10
282.85957799365508
20
63.414517677409599
10
267.13812662753179
20
124.05440151817078
42
0.5678119856009467
10
258.89529388191397
20
126.46300767498006
10
226.27425792148563
20
96.162215605627793
42
0.49314542603133549
10
227.01923906703485
20
88.263737565656584
10
275.36172639358642
20
57.924645794247724
42
0.67861924386524353
0
ENDSEC
0
SECTION
2
OBJECTS
0
DICTIONARY
5
C
100
AcDbDictionary
3
ACAD_GROUP
350
D
3
ACAD_MLINESTYLE
350
17
0
DICTIONARY
5
D
100
AcDbDictionary
0
DICTIONARY
5
1A
330
C
100
AcDbDictionary
0
DICTIONARY
5
17
100
AcDbDictionary
0
ENDSEC
0
EOF
